<svg viewBox="0 0 507 505" fill="none" xmlns="http://www.w3.org/2000/svg">
<path d="M301.396 158.627H79.316C75.1089 158.627 71.0741 156.956 68.0992 153.981C65.1244 151.006 63.4531 146.971 63.4531 142.764V79.313C63.4531 75.1059 65.1244 71.0712 68.0992 68.0963C71.0741 65.1215 75.1089 63.4502 79.316 63.4502H301.396C305.603 63.4502 309.637 65.1215 312.612 68.0963C315.587 71.0712 317.258 75.1059 317.258 79.313V142.764C317.258 146.971 315.587 151.006 312.612 153.981C309.637 156.956 305.603 158.627 301.396 158.627ZM95.1788 126.902H285.533V94.2241H95.1788V126.902Z" fill="#031335" stroke-width="20"/>
<path d="M301.396 191.625H79.316C75.1089 191.625 71.0741 193.296 68.0992 196.271C65.1244 199.246 63.4531 203.281 63.4531 207.488V269.67C63.4531 273.877 65.1244 277.912 68.0992 280.887C71.0741 283.862 75.1089 285.533 79.316 285.533H259.518L317.258 226.84V207.488C317.258 203.281 315.587 199.246 312.612 196.271C309.637 193.296 305.603 191.625 301.396 191.625ZM285.533 253.807H95.1788V222.082H285.533V253.807Z" fill="#031335" stroke-width="20"/>
<path d="M143.717 468.112V467.16L148.793 445.111H31.7257V31.7257H348.982V194.32L380.708 164.339V15.8628C380.708 11.6557 379.037 7.62097 376.062 4.64611C373.087 1.67126 369.052 0 364.845 0H15.8628C11.6557 0 7.62097 1.67126 4.64611 4.64611C1.67126 7.62097 0 11.6557 0 15.8628V460.022C0 464.229 1.67126 468.264 4.64611 471.239C7.62097 474.214 11.6557 475.885 15.8628 475.885H142.765C142.896 473.274 143.214 470.677 143.717 468.112Z" fill="#031335" stroke-width="20"/>
<path d="M63.4531 395.617C63.4531 399.824 65.1244 403.859 68.0992 406.834C71.0741 409.809 75.1089 411.48 79.316 411.48H156.092L160.851 390.858L162.913 382.134V381.341H95.1788V348.981H195.749L227.475 317.255H79.316C75.1089 317.255 71.0741 318.926 68.0992 321.901C65.1244 324.876 63.4531 328.911 63.4531 333.118V395.617Z" fill="#031335" stroke-width="20"/>
<path d="M499.509 232.711L446.051 179.253C443.679 176.874 440.86 174.987 437.757 173.699C434.654 172.411 431.327 171.748 427.968 171.748C424.608 171.748 421.281 172.411 418.178 173.699C415.075 174.987 412.256 176.874 409.884 179.253L192.405 398.001L174.48 474.302C173.809 477.593 173.793 480.985 174.435 484.283C175.077 487.58 176.363 490.719 178.22 493.518C180.076 496.318 182.467 498.724 185.255 500.598C188.043 502.473 191.173 503.778 194.467 504.441C196.102 504.605 197.749 504.605 199.384 504.441C201.328 504.758 203.31 504.758 205.254 504.441L282.188 487.468L499.509 269.671C501.883 267.312 503.767 264.507 505.053 261.417C506.339 258.327 507 255.014 507 251.667C507 248.32 506.339 245.006 505.053 241.916C503.767 238.827 501.883 236.021 499.509 233.663V232.711ZM266.008 458.597L207.95 471.446L222.068 413.864L385.138 249.049L429.871 293.783L266.008 458.597ZM447.796 275.858L403.063 231.124L428.285 206.22L473.335 251.27L447.796 275.858Z" fill="#031335" stroke-width="20"/>
</svg>
