<svg width="3205" height="1686" viewBox="0 0 3205 1686" fill="none" xmlns="http://www.w3.org/2000/svg">
<path d="M1602.47 0C717.456 0 0 377.457 0 843C0 1308.54 717.456 1686 1602.47 1686C2487.46 1686 3204.94 1308.54 3204.94 843C3204.94 377.457 2487.49 0 1602.47 0ZM1452.69 245.629H1635.3V245.704L1591.6 470.25H1754.26C1856.59 470.25 1927.22 488.128 1966.03 523.808C2004.92 559.538 2016.53 617.377 2001.04 697.325L1924.59 1090.43H1739.11L1811.77 716.63C1820.03 674.115 1816.98 645.145 1802.63 629.671C1788.28 614.222 1757.74 606.51 1711.04 606.51H1565.11L1471.07 1090.38H1288.51L1452.69 245.629ZM669.282 470.275H1023.15C1129.62 470.275 1207.31 498.218 1256.14 554.104C1304.96 609.991 1319.64 687.961 1300.15 788.115C1292.14 829.404 1278.55 867.087 1259.47 901.29C1240.36 935.443 1215.4 966.716 1184.6 995.059C1147.85 1029.44 1107.03 1053.98 1062.14 1068.57C1017.22 1083.22 959.98 1090.48 890.423 1090.48H732.83L689.138 1315.08H505.104L669.282 470.275ZM2105.65 470.275H2459.44C2565.91 470.275 2643.55 498.218 2692.38 554.104H2692.43C2741.25 609.991 2755.98 687.961 2736.49 788.115C2728.48 829.404 2714.94 867.087 2695.86 901.29C2676.75 935.443 2651.79 966.716 2620.94 995.059C2584.21 1029.44 2543.37 1053.98 2498.43 1068.57C2453.51 1083.22 2396.35 1090.48 2326.79 1090.48H2169.17L2125.5 1315.08H1941.47L2105.65 470.275ZM827.401 603.606L758.745 957.151H870.618C944.807 957.151 1000.12 943.23 1036.42 915.261C1072.73 887.318 1097.22 840.621 1109.96 775.245C1122.11 712.474 1116.57 668.105 1093.29 642.315C1070 616.476 1023.43 603.581 953.47 603.581L827.401 603.606ZM2263.69 603.606L2194.98 957.151H2306.91C2381.15 957.151 2436.36 943.23 2472.71 915.261C2508.99 887.318 2533.48 840.621 2546.2 775.245C2558.4 712.474 2552.86 668.105 2529.58 642.315C2506.29 616.476 2459.67 603.581 2389.76 603.581L2263.69 603.606Z" fill="#031335"/>
</svg>
