<svg width="1573" height="1573" viewBox="0 0 1573 1573" fill="none" xmlns="http://www.w3.org/2000/svg">
<path d="M0 0H1573V1573H0V0Z" fill="#031335"/>
<path d="M1056.67 1228.9C1070.07 1256.12 1090.89 1279.01 1116.73 1294.91C1142.58 1310.81 1172.39 1319.09 1202.73 1318.79C1263.97 1318.79 1303.12 1288.17 1303.12 1245.75C1303.12 1195.19 1262.9 1177.1 1195.48 1147.61L1158.52 1131.77C1051.78 1086.32 980.994 1029.41 980.994 909.076C980.994 798.236 1065.26 713.799 1197.45 713.799C1240.24 710.709 1283 720.286 1320.38 741.336C1357.76 762.386 1388.12 793.977 1407.67 832.168L1292.11 906.043C1284.58 887.106 1271.48 870.905 1254.53 859.587C1237.59 848.27 1217.6 842.371 1197.23 842.673C1188.34 841.783 1179.36 842.755 1170.86 845.526C1162.37 848.297 1154.55 852.808 1147.89 858.769C1141.24 864.731 1135.9 872.013 1132.22 880.152C1128.53 888.292 1126.58 897.109 1126.5 906.043C1126.5 950.367 1153.97 968.345 1217.39 995.928L1254.36 1011.77C1379.97 1065.65 1450.98 1120.53 1450.98 1243.96C1450.98 1377.04 1346.44 1449.96 1206.05 1449.96C1151.34 1453.45 1096.8 1441.03 1049 1414.2C1001.21 1387.38 962.191 1347.29 936.669 1298.79L1056.67 1228.9ZM534.487 1241.71C557.689 1282.89 578.812 1317.72 629.597 1317.72C678.135 1317.72 708.809 1298.73 708.809 1224.86V722.226H856.615V1226.82C856.615 1379.85 766.729 1449.51 635.889 1449.51C589.64 1452.04 543.709 1440.52 504.133 1416.45C464.557 1392.39 433.189 1356.91 414.152 1314.69L534.487 1241.71Z" fill="#F3F1EE"/>
</svg>
