<svg width="2725" height="2425" viewBox="0 0 2725 2425" fill="none" xmlns="http://www.w3.org/2000/svg">
<path d="M1362.5 1453.27C1496.87 1453.27 1605.8 1344.33 1605.8 1209.96C1605.8 1075.59 1496.87 966.658 1362.5 966.658C1228.13 966.658 1119.2 1075.59 1119.2 1209.96C1119.2 1344.33 1228.13 1453.27 1362.5 1453.27Z" fill="#031335"/>
<path d="M1362.5 1767.77C1070.06 1774.84 778.357 1735.43 498.286 1650.99C368.909 1609.97 248.241 1545.37 142.381 1460.43C101.986 1431.41 68.3461 1394 43.7695 1350.76C19.193 1307.52 4.26167 1259.48 0 1209.92C0 1049.05 176.736 891.392 472.787 788.231C760.346 696.822 1060.8 652.52 1362.5 657.042C1660.18 652.883 1956.6 696.384 2240.53 785.895C2365.13 825.618 2481.71 887.102 2584.86 967.497C2624.56 995.16 2657.7 1031.22 2681.92 1073.11C2706.13 1115 2720.84 1161.71 2725 1209.92C2725 1377.12 2527.44 1546.56 2209.2 1651.86C1934.55 1733.55 1649 1772.64 1362.5 1767.77ZM1362.5 773.438C1073.86 769.58 786.437 811.696 511.035 898.204C238.535 993.287 116.396 1123.31 116.396 1209.63C116.396 1299.95 247.683 1441.94 535.949 1540.53C803.882 1620.9 1082.86 1658.31 1362.5 1651.37C1636.6 1656.28 1909.83 1619.19 2172.7 1541.4C2471.96 1442.23 2608.21 1300.04 2608.21 1209.92C2603.3 1179 2592.03 1149.43 2575.12 1123.08C2558.2 1096.73 2536 1074.17 2509.92 1056.84C2417.63 985.516 2313.5 931.025 2202.29 895.869C1930.67 810.591 1647.16 769.26 1362.5 773.438Z" fill="#031335"/>
<path d="M809.712 2423.45C764.312 2424.49 719.447 2413.47 679.691 2391.53C540.326 2311.14 492.055 2079.32 550.545 1771.3C615.035 1476.52 726.775 1194.11 881.438 935.013C1026.52 675.077 1212.25 440.027 1431.6 238.775C1528.25 150.671 1639.75 80.3887 1760.93 31.1885C1804.76 10.6478 1852.57 0 1900.98 0C1949.38 0 1997.19 10.6478 2041.02 31.1885C2185.93 114.69 2233.91 370.451 2166.28 698.716C2099.79 977.5 1990.96 1244.44 1843.56 1490.23C1703.58 1747.1 1523.7 1980.1 1310.63 2180.53C1210.46 2272.09 1094.22 2344.32 967.762 2393.57C917.137 2412.36 863.702 2422.46 809.712 2423.45ZM982.263 992.822C834.733 1240.93 727.637 1510.93 664.995 1792.71C611.176 2076.4 662.854 2247 737.986 2290.41C815.843 2335.47 1004.84 2292.74 1234.33 2092.26C1437.73 1900.24 1609.42 1677.21 1743.02 1431.45C1884.23 1196.47 1988.63 941.255 2052.6 674.678C2116.25 365.682 2061.27 176.489 1983.21 131.527C1953.96 120.318 1922.7 115.3 1891.41 116.791C1860.12 118.282 1829.47 126.249 1801.42 140.189C1693.55 184.698 1594.39 247.887 1508.48 326.851C1298.91 519.624 1121.5 744.646 982.944 993.406L982.263 992.822Z" fill="#031335"/>
<path d="M1915 2424.71C1783.13 2424.71 1615.64 2344.91 1441.24 2194.94C1218.05 1991.85 1029.18 1754.01 881.931 1490.62C729.208 1235.09 618.353 956.768 553.569 666.21C525.473 538.378 520.267 406.575 538.192 276.925C542.336 228.829 556.981 182.228 581.095 140.408C605.208 98.5885 638.202 62.5678 677.751 34.8864C822.468 -48.9073 1068.01 37.2221 1318.61 259.699C1526.94 456.501 1703.85 684.089 1843.18 934.526C1995.8 1184.09 2107.82 1456.32 2175.04 1741.03C2204.35 1873.55 2208.87 2010.35 2188.37 2144.52C2183.5 2194 2167.98 2241.84 2142.88 2284.76C2117.79 2327.68 2083.71 2364.67 2042.98 2393.18C2003.87 2414.85 1959.7 2425.74 1915 2424.71ZM982.659 1432.03C1123.91 1683.75 1304.33 1911.38 1517.15 2106.37C1736.02 2294.69 1909.65 2335.18 1984.29 2291.28C2062.15 2246.03 2119.57 2061.31 2060.4 1762.44C1995.57 1490.61 1888.13 1230.76 1742.06 992.529C1609.1 752.839 1440.24 534.91 1241.34 346.315C1005.43 136.879 814.098 90.0677 736.144 135.225C711.847 154.97 691.908 179.538 677.586 207.378C663.264 235.218 654.87 265.725 652.934 296.973C637.46 412.599 642.501 530.048 667.824 643.924C730.139 921.79 836.457 1187.91 982.756 1432.23L982.659 1432.03Z" fill="#031335"/>
</svg>
