<svg width="1021" height="1021" viewBox="0 0 1021 1021" fill="none" xmlns="http://www.w3.org/2000/svg">
<path d="M510.5 0C229.214 0 0 229.214 0 510.5C0 791.785 229.214 1021 510.5 1021C791.785 1021 1021 791.785 1021 510.5C1021 229.214 791.785 0 510.5 0ZM51.5605 510.5C51.5605 444.135 65.8545 380.833 91.3795 323.657L310.384 923.494C157.234 848.961 51.5605 692.238 51.5605 510.5ZM510.5 969.439C465.576 969.439 422.183 962.803 380.833 950.551L518.668 550.319L659.566 936.768C660.587 938.81 661.608 941.362 662.629 942.893C615.152 960.25 564.102 969.439 510.5 969.439ZM573.802 295.069C601.369 293.538 626.384 290.474 626.384 290.474C650.888 287.411 648.335 251.166 623.32 252.697C623.32 252.697 548.788 258.313 500.801 258.313C455.877 258.313 379.812 252.697 379.812 252.697C355.308 251.676 352.245 289.453 377.26 290.985C377.26 290.985 400.742 294.048 425.246 295.579L496.716 491.611L396.148 792.807L229.214 295.069C256.781 294.048 281.796 290.985 281.796 290.985C306.3 287.922 303.747 251.676 278.733 253.208C278.733 253.208 204.2 258.824 156.213 258.824C147.534 258.824 137.324 258.823 126.604 258.313C209.305 133.751 350.203 51.5605 510.5 51.5605C629.957 51.5605 738.693 96.995 820.373 172.038C818.331 172.038 816.29 171.528 814.248 171.528C769.324 171.528 737.162 210.836 737.162 253.208C737.162 290.985 759.113 323.146 782.086 360.923C799.443 391.553 819.863 430.862 819.863 487.528C819.863 526.836 804.548 572.27 785.149 636.083L739.204 789.233L573.802 295.069ZM913.284 290.474C970.624 395.415 984.73 518.595 952.596 633.78C920.462 748.966 844.629 847.056 741.246 907.159L881.634 501.821C907.669 436.477 916.348 383.896 916.348 337.44C916.348 320.594 915.326 304.768 913.284 290.474Z" fill="#031335"/>
</svg>
